<svg width="32" height="32" viewBox="0 0 32 32" fill="none" xmlns="http://www.w3.org/2000/svg">
<g id="garage">
<path id="Vector" d="M6.4 28.8002H25.6V20.8002H6.4055L6.4 28.8002ZM13.6 24.0002H18.4C18.6122 24.0002 18.8157 24.0845 18.9657 24.2345C19.1157 24.3845 19.2 24.588 19.2 24.8002C19.2 25.0124 19.1157 25.2159 18.9657 25.3659C18.8157 25.5159 18.6122 25.6002 18.4 25.6002H13.6C13.3878 25.6002 13.1843 25.5159 13.0343 25.3659C12.8843 25.2159 12.8 25.0124 12.8 24.8002C12.8 24.588 12.8843 24.3845 13.0343 24.2345C13.1843 24.0845 13.3878 24.0002 13.6 24.0002ZM6.4 19.2002H25.5735L25.6 14.4002H6.4V19.2002ZM30.525 9.0502L16.9205 3.3837C16.6258 3.27243 16.3148 3.21043 16 3.2002C15.6837 3.20994 15.3711 3.27194 15.075 3.3837L1.475 9.0502C1.03863 9.23324 0.665945 9.54092 0.403582 9.93473C0.141219 10.3285 0.000834892 10.791 0 11.2642L0 28.0002C0 28.2124 0.0842855 28.4159 0.234315 28.5659C0.384344 28.7159 0.587827 28.8002 0.8 28.8002H4C4.21217 28.8002 4.41566 28.7159 4.56569 28.5659C4.71571 28.4159 4.8 28.2124 4.8 28.0002V14.4002C4.8 13.5207 5.5295 12.8002 6.4295 12.8002H25.5705C26.4705 12.8002 27.2 13.5207 27.2 14.4002V28.0002C27.2 28.2124 27.2843 28.4159 27.4343 28.5659C27.5843 28.7159 27.7878 28.8002 28 28.8002H31.2C31.4122 28.8002 31.6157 28.7159 31.7657 28.5659C31.9157 28.4159 32 28.2124 32 28.0002V11.2642C31.9992 10.791 31.8588 10.3285 31.5964 9.93473C31.3341 9.54092 30.9614 9.23324 30.525 9.0502Z" fill="#005CA9"/>
</g>
</svg>
