<svg width="32" height="32" viewBox="0 0 32 32" fill="none" xmlns="http://www.w3.org/2000/svg">
<g id="home-heart" clip-path="url(#clip0_1546_3843)">
<path id="Vector" d="M3.55576 19.0779V29.3335C3.55576 29.8224 3.95576 30.2224 4.44465 30.2224H27.5558C28.0447 30.2224 28.4447 29.8224 28.4447 29.3335V19.0779C28.0724 18.7724 25.9613 16.9501 16.0002 8.1668C5.99465 16.9946 3.91132 18.7835 3.55576 19.0779ZM21.0058 17.6168C22.5391 18.8946 22.6224 21.1835 21.2558 22.5668L16.5502 27.3224C16.2446 27.6279 15.7558 27.6279 15.4502 27.3224L10.7446 22.5668C9.37798 21.1835 9.45576 18.8946 10.9835 17.6168C12.3169 16.5057 14.3002 16.7057 15.5169 17.939L15.9946 18.4224L16.4724 17.939C17.6947 16.7057 19.678 16.5057 21.0058 17.6168ZM3.55576 19.0779V19.0612C3.55576 19.0612 3.40576 19.2001 3.55576 19.0779ZM31.7058 14.9057L28.4447 12.0279V4.44457C28.4447 3.95569 28.0447 3.55569 27.5558 3.55569H24.0002C23.5113 3.55569 23.1113 3.95569 23.1113 4.44457V7.3168L17.4835 2.35013C16.6335 1.58902 15.3613 1.58902 14.5113 2.35013L0.289094 14.9057C-0.0775725 15.2335 -0.10535 15.7946 0.222427 16.1612L1.41132 17.4835C1.73909 17.8501 2.30021 17.8779 2.66687 17.5501L15.4113 6.3168C15.7447 6.02235 16.2502 6.02235 16.5891 6.3168L29.328 17.5557C29.6947 17.8835 30.2558 17.8557 30.5835 17.489L31.7724 16.1668C32.1002 15.7946 32.0724 15.2335 31.7058 14.9057ZM28.4447 19.0612V19.0779C28.6058 19.2057 28.4447 19.0612 28.4447 19.0612Z" fill="#005CA9"/>
</g>
<defs>
<clipPath id="clip0_1546_3843">
<rect width="32" height="32" fill="white"/>
</clipPath>
</defs>
</svg>
