<svg width="32" height="32" viewBox="0 0 32 32" fill="none" xmlns="http://www.w3.org/2000/svg">
<g id="pump-soap" clip-path="url(#clip0_1546_3839)">
<path id="Vector" d="M18.7264 10H9.27265C8.27441 9.99996 7.31222 10.3732 6.5751 11.0463C5.83799 11.7195 5.37921 12.644 5.2889 13.6381L4.0164 27.6381C3.96612 28.1916 4.03173 28.7495 4.20905 29.2762C4.38636 29.8029 4.67148 30.2869 5.04624 30.6973C5.421 31.1077 5.87716 31.4355 6.38565 31.6598C6.89413 31.8841 7.44377 31.9999 7.99953 32H19.9995C20.5553 32 21.1051 31.8842 21.6136 31.66C22.1222 31.4357 22.5784 31.1079 22.9532 30.6975C23.3281 30.2871 23.6132 29.8031 23.7906 29.2763C23.9679 28.7496 24.0336 28.1917 23.9833 27.6381L22.7108 13.6381C22.6205 12.6439 22.1616 11.7193 21.4243 11.0461C20.6871 10.373 19.7248 9.99981 18.7264 10ZM13.9995 26C11.9295 26 10.2495 24.3544 10.2495 22.3281C10.2495 20.7656 12.4808 17.6112 13.4995 16.2488C13.5578 16.1712 13.6334 16.1083 13.7203 16.065C13.8071 16.0217 13.9028 15.9993 13.9998 15.9994C14.0969 15.9995 14.1925 16.0222 14.2793 16.0657C14.366 16.1092 14.4414 16.1723 14.4995 16.25C15.5202 17.6125 17.7495 20.7669 17.7495 22.3294C17.7495 24.3544 16.0695 26 13.9995 26ZM27.7064 5.87875L24.9995 3.17125C24.2494 2.4213 23.2321 1.99999 22.1714 2H17.9995C17.9995 1.46957 17.7888 0.960859 17.4137 0.585786C17.0387 0.210714 16.53 0 15.9995 0L11.9995 0C11.4691 0 10.9604 0.210714 10.5853 0.585786C10.2102 0.960859 9.99953 1.46957 9.99953 2V8H17.9995V6H22.1714L24.8783 8.70687C24.9711 8.79976 25.0814 8.87344 25.2027 8.92371C25.3241 8.97398 25.4541 8.99985 25.5855 8.99985C25.7168 8.99985 25.8469 8.97398 25.9682 8.92371C26.0895 8.87344 26.1998 8.79976 26.2927 8.70687L27.7064 7.29313C27.7993 7.20026 27.873 7.09001 27.9232 6.96867C27.9735 6.84733 27.9994 6.71728 27.9994 6.58594C27.9994 6.4546 27.9735 6.32454 27.9232 6.2032C27.873 6.08186 27.7993 5.97161 27.7064 5.87875Z" fill="#005CA9"/>
</g>
<defs>
<clipPath id="clip0_1546_3839">
<rect width="32" height="32" fill="white"/>
</clipPath>
</defs>
</svg>
