<svg width="32" height="32" viewBox="0 0 32 32" fill="none" xmlns="http://www.w3.org/2000/svg">
<g id="quidditch">
<path id="Vector" d="M12.825 14.04L17.16 19.5C17.16 19.5 16.33 24.62 13.33 27.005C10.335 29.39 0 28.71 0 28.71C0 28.71 0.19 27.555 0.55 25.94L5.28 20.33C5.48 20.095 5.235 19.75 4.95 19.855L1.93 20.96C2.65 18.875 3.565 16.96 4.66 16.085C7.655 13.695 12.825 14.04 12.825 14.04ZM24.725 20.79C22.525 20.79 20.735 22.58 20.735 24.785C20.735 26.99 22.52 28.78 24.725 28.78C26.93 28.78 28.715 26.99 28.715 24.785C28.715 22.575 26.925 20.79 24.725 20.79ZM31.825 4.75005L30.835 3.50005C30.56 3.15505 30.06 3.10005 29.715 3.37005L18.09 12.265L16.385 10.115C16.13 9.79505 15.63 9.85505 15.455 10.225L14.19 12.955L18.525 18.415L21.465 17.795C21.865 17.71 22.035 17.235 21.78 16.915L20.075 14.77L31.7 5.87505C32.045 5.60005 32.1 5.09505 31.825 4.75005Z" fill="#005CA9"/>
</g>
</svg>
