<svg width="32" height="32" viewBox="0 0 32 32" fill="none" xmlns="http://www.w3.org/2000/svg">
<g id="spider-web" clip-path="url(#clip0_1546_3835)">
<path id="Vector" d="M31.509 14.77C28.3679 11.4745 26.069 7.4567 24.8113 3.06392L24.8101 3.06059C24.5479 2.14503 23.6157 1.6017 22.699 1.83059L22.6951 1.8317C18.2991 2.92892 13.7007 2.92892 9.30458 1.8317L9.30069 1.83059C8.38403 1.6017 7.45181 2.14503 7.18958 3.06059L7.18847 3.06392C5.93125 7.4567 3.63236 11.4745 0.49125 14.77C-0.16375 15.4573 -0.16375 16.5434 0.49125 17.2306C3.63236 20.5261 5.93125 24.5439 7.18903 28.9367L7.19014 28.94C7.45236 29.8556 8.38458 30.3989 9.30125 30.17L9.30514 30.1689C13.7012 29.0717 18.2996 29.0717 22.6957 30.1689L22.6996 30.17C23.6163 30.3989 24.5485 29.8556 24.8107 28.94L24.8124 28.9334C26.0696 24.5423 28.3674 20.5267 31.5068 17.2323L31.509 17.23C32.164 16.5434 32.164 15.4567 31.509 14.77ZM20.3079 5.87281L19.0012 8.13614C17.0217 8.54836 14.9785 8.54836 12.999 8.13614L11.6924 5.87281C14.5505 6.27003 17.4498 6.27003 20.3079 5.87281ZM16.0001 13.3339L14.6985 11.0795C15.565 11.1445 16.4352 11.1445 17.3018 11.0795L16.0001 13.3339ZM16.8018 14.6667H16.7696L16.7535 14.6389L16.8018 14.6667ZM16.0001 18.6661L17.3024 20.9211C16.869 20.8889 16.4346 20.8661 16.0001 20.8661C15.5657 20.8661 15.1318 20.8889 14.6979 20.9211L16.0001 18.6661ZM12.389 12.4117L13.6907 14.6667H11.0868C11.5763 13.9484 12.0118 13.1945 12.389 12.4117ZM9.42292 24.7256C8.3465 22.083 6.92045 19.5968 5.18292 17.3334H7.68903C9.03458 18.8395 10.059 20.6134 10.6896 22.5311L9.42292 24.7256ZM7.68903 14.6667H5.18292C6.92045 12.4033 8.3465 9.91706 9.42292 7.27448L10.6901 9.46892C10.0574 11.3893 9.03582 13.1586 7.68903 14.6667ZM13.6907 17.3334L12.389 19.5884C12.0116 18.8054 11.5763 18.0516 11.0868 17.3334H13.6907ZM16.0001 25.7934C14.5585 25.7934 13.1213 25.9284 11.6924 26.1273L12.999 23.8645C14.9757 23.4523 17.024 23.4523 19.0012 23.8645L20.3079 26.1273C18.879 25.9284 17.4418 25.7934 16.0001 25.7934ZM19.6112 19.5884L18.3096 17.3334H20.9135C20.424 18.0516 19.9887 18.8054 19.6112 19.5884ZM18.309 14.6667L19.6112 12.4117C19.9887 13.1947 20.424 13.9484 20.9135 14.6667H18.309ZM22.5774 24.7256L21.3101 22.5311C21.9407 20.6134 22.9657 18.8395 24.3113 17.3334H26.8174C25.0798 19.5968 23.6538 22.083 22.5774 24.7256ZM24.3113 14.6667C22.9645 13.1586 21.9428 11.3893 21.3101 9.46892L22.5774 7.27448C23.6538 9.91706 25.0798 12.4033 26.8174 14.6667H24.3113Z" fill="#005CA9"/>
</g>
<defs>
<clipPath id="clip0_1546_3835">
<rect width="32" height="32" fill="white"/>
</clipPath>
</defs>
</svg>
