<svg xmlns="http://www.w3.org/2000/svg" width="33" height="32" fill="none" viewBox="0 0 33 32">
                            <g clip-path="url(#clip0_952_2306)">
                                <path d="M8.8983 11.075L10.3389 11.5556H10.5983L10.8883 10.1045C10.9283 9.90558 10.9883 9.68335 11.0666 9.44946L9.93941 7.19502L11.2616 3.22891C11.4166 2.76335 11.1655 2.26002 10.6994 2.10446L9.85663 1.82335C9.39108 1.6678 8.88719 1.91946 8.73219 2.38558L7.29385 6.70113C7.1449 7.14842 7.17946 7.63652 7.38997 8.05835L8.8983 11.075ZM32.3505 21.1878L29.42 16.7922C29.2576 16.5488 29.0377 16.3491 28.7798 16.211C28.5218 16.0729 28.2337 16.0006 27.9411 16.0006H23.6111L27.4439 14.6472C27.8189 14.5221 28.1417 14.2756 28.3611 13.9467L31.3389 9.47947C31.6111 9.07113 31.5005 8.51891 31.0922 8.24669L30.3527 7.75335C29.9444 7.48113 29.3922 7.59169 29.12 8.00002L26.3111 12.2128L22.95 13.3334H20.9444L20.3683 10.4528C20.2466 9.84335 19.4033 7.11113 16.5 7.11113C13.5966 7.11113 12.7533 9.84335 12.6316 10.4528L12.0555 13.3334H10.05L6.68941 12.2128L3.87997 8.00002C3.60774 7.59169 3.05608 7.48113 2.64719 7.75335L1.90774 8.24669C1.49941 8.51891 1.38885 9.07058 1.66108 9.47947L4.63885 13.9467C4.85827 14.2756 5.18099 14.5221 5.55608 14.6472L9.38885 16H5.05885C4.76616 16.0001 4.478 16.0724 4.21993 16.2105C3.96186 16.3486 3.74185 16.5482 3.57941 16.7917L0.64941 21.1878C0.377188 21.5961 0.487188 22.1484 0.896077 22.4206L1.63552 22.9139C2.04385 23.1861 2.59608 23.0756 2.8683 22.6672L5.53497 18.6672H8.14941L4.76997 24.0745C4.59342 24.357 4.49986 24.6835 4.49997 25.0167V29.3334C4.49997 29.8245 4.89774 30.2222 5.38885 30.2222H6.27774C6.76885 30.2222 7.16663 29.8245 7.16663 29.3334V25.2717L11.2822 18.6867C11.2261 19.4672 11.1666 20.2484 11.1666 21.0317C11.1666 23.98 13.4311 26.6667 16.5 26.6667C19.5689 26.6667 21.8333 23.98 21.8333 21.0317C21.8333 20.2484 21.7733 19.4672 21.7177 18.6867L25.8333 25.2717V29.3334C25.8333 29.8245 26.2311 30.2222 26.7222 30.2222H27.6111C28.1022 30.2222 28.5 29.8245 28.5 29.3334V25.0161C28.5 24.6828 28.4061 24.3561 28.23 24.0739L24.8505 18.6667H27.465L30.1316 22.6667C30.4039 23.075 30.9561 23.1856 31.3644 22.9134L32.1039 22.42C32.5127 22.1478 32.6227 21.5961 32.3505 21.1878ZM23.0605 7.19502L21.9333 9.44946C22.0116 9.68335 22.0716 9.90558 22.1116 10.1045L22.4016 11.5556H22.6611L24.1016 11.075L25.61 8.05835C25.7143 7.84952 25.7765 7.62218 25.793 7.3893C25.8095 7.15643 25.78 6.92259 25.7061 6.70113L24.2677 2.38558C24.1127 1.92002 23.6089 1.6678 23.1433 1.82335L22.3005 2.10446C21.835 2.26002 21.5833 2.76335 21.7383 3.22891L23.0605 7.19502Z" fill="white" />
                            </g>
                            <defs>
                                <clipPath id="clip0_952_2306">
                                    <rect width="32" height="32" fill="white" transform="translate(0.5)" />
                                </clipPath>
                            </defs>
                        </svg>