<svg width="32" height="32" viewBox="0 0 32 32" fill="none" xmlns="http://www.w3.org/2000/svg">
<g id="tree-alt" clip-path="url(#clip0_127_7509)">
<path id="Vector" d="M31 14.6875C30.3331 13.6875 29.4375 12.9581 28.3125 12.5H28.375C28.9169 11.5 29.1144 10.4688 28.9688 9.40625C28.8231 8.34375 28.3956 7.42688 27.6875 6.65625C26.9794 5.88562 26.1144 5.375 25.0938 5.125C24.0731 4.875 23.0419 4.97937 22 5.4375C21.8331 3.89563 21.1769 2.60437 20.0312 1.5625C18.8856 0.520625 17.5419 0 16 0C14.4581 0 13.1144 0.520625 11.9688 1.5625C10.8231 2.60437 10.1669 3.89563 10 5.4375C8.95813 4.97937 7.92688 4.875 6.90625 5.125C5.88562 5.375 5.02063 5.88562 4.3125 6.65625C3.60437 7.42688 3.17688 8.34375 3.03125 9.40625C2.88562 10.4688 3.10437 11.5 3.6875 12.5C2.5625 12.9581 1.66688 13.6875 1 14.6875C0.333125 15.6875 0 16.7919 0 18C0 19.6669 0.583125 21.0831 1.75 22.25C2.91687 23.4169 4.33313 24 6 24H14V27.5281L12.1069 30.5531C11.7744 31.2181 12.2581 32.0006 13.0013 32.0006H18.9988C19.7419 32.0006 20.2256 31.2181 19.8931 30.5531L18 27.5281V24H26C27.6669 24 29.0831 23.4169 30.25 22.25C31.4169 21.0831 32 19.6669 32 18C32 16.7919 31.6669 15.6875 31 14.6875Z" fill="#005CA9"/>
</g>
<defs>
<clipPath id="clip0_127_7509">
<rect width="32" height="32" fill="white"/>
</clipPath>
</defs>
</svg>
